<?xml version="1.0" standalone="no"?><!DOCTYPE svg PUBLIC "-//W3C//DTD SVG 1.1//EN" "http://www.w3.org/Graphics/SVG/1.1/DTD/svg11.dtd"><svg class="icon" viewBox="0 0 1024 1024" version="1.1" xmlns="http://www.w3.org/2000/svg" width="200" height="200">
  <!-- 邪教徒：尖顶兜帽+披风肩（暗红），帽腔（黑），双眼（红光），胸前符文（金） -->
  <!-- 兜帽+披风主体 -->
  <path d="M512 96 C 648 96 728 208 748 380 C 762 502 806 640 846 742 C 872 808 838 892 756 900 L 268 900 C 186 892 152 808 178 742 C 218 640 262 502 276 380 C 296 208 376 96 512 96 Z" fill="#6E1F2A"/>
  <!-- 兜帽尖（更深一色，叠出帽体褶皱） -->
  <path d="M512 96 C 596 96 660 148 694 238 C 646 210 584 194 512 194 C 440 194 378 210 330 238 C 364 148 428 96 512 96 Z" fill="#4A141C"/>
  <!-- 帽腔（脸部黑洞） -->
  <path d="M512 250 C 608 250 676 330 668 440 C 662 530 606 596 512 596 C 418 596 362 530 356 440 C 348 330 416 250 512 250 Z" fill="#140A0C"/>
  <!-- 双眼（红光） -->
  <path d="M418 424 A 30 30 0 1 1 417.9 424 Z M 606 424 A 30 30 0 1 1 605.9 424 Z" fill="#FF3020"/>
  <!-- 兜帽沿（半环暗边） -->
  <path d="M330 244 C 380 210 442 192 512 192 C 582 192 644 210 694 244 L 672 292 C 630 264 576 250 512 250 C 448 250 394 264 352 292 Z" fill="#4A141C"/>
  <!-- 胸前金符文（实心倒三角描边感 + 圆点） -->
  <path d="M512 628 L 608 792 L 416 792 Z" fill="#C8A050"/>
  <path d="M512 682 L 566 776 L 458 776 Z" fill="#6E1F2A"/>
  <path d="M512 700 A 18 18 0 1 1 511.9 700 Z" fill="#C8A050"/>
</svg>
